<?xml version="1.0" encoding="utf-8"?>
<!-- Generator: Adobe Illustrator 15.0.2, SVG Export Plug-In . SVG Version: 6.00 Build 0)  -->
<!DOCTYPE svg PUBLIC "-//W3C//DTD SVG 1.1//EN" "http://www.w3.org/Graphics/SVG/1.1/DTD/svg11.dtd">
<svg version="1.1" id="Layer_1" xmlns="http://www.w3.org/2000/svg" xmlns:xlink="http://www.w3.org/1999/xlink" x="0px" y="0px"
	 width="20px" height="20px" viewBox="0 0 20 20" enable-background="new 0 0 20 20" xml:space="preserve">
	 <defs>
		 <style type="text/css">
		</style>

	</defs>
<title>clock icon</title>
<desc>Created with Sketch.</desc>
<g id="Home">
	<g id="home-desktop" transform="translate(-574.000000, -2641.000000)">
		<g id="USP_x27_s" transform="translate(358.000000, 2621.000000)">
			<g id="USP-01" transform="translate(124.000000, 20.000000)">
				<g>
					<g id="clock-icon" transform="translate(92.000000, 0.000000)">
						<g id="Group">
							<path id="Shape" fill="#000" d="M9.914,0C4.448,0,0,4.448,0,9.915c0,5.466,4.448,9.914,9.914,9.914
								c5.467,0,9.914-4.447,9.914-9.914C19.828,4.448,15.381,0,9.914,0z M9.914,17.719c-4.303,0-7.805-3.501-7.805-7.804
								c0-4.304,3.501-7.805,7.805-7.805c4.304,0,7.805,3.501,7.805,7.805C17.719,14.218,14.218,17.719,9.914,17.719z"/>
							<path id="Shape_1_" fill="#000" d="M15.081,9.608h-4.456V4.251c0-0.451-0.365-0.816-0.815-0.816
								c-0.451,0-0.816,0.366-0.816,0.816v6.173c0,0.451,0.365,0.816,0.816,0.816h5.271c0.451,0,0.816-0.365,0.816-0.816
								S15.532,9.608,15.081,9.608z"/>
						</g>
					</g>
				</g>
			</g>
		</g>
	</g>
</g>
</svg>
